<svg width="34" height="34" viewBox="0 0 34 34" fill="none" xmlns="http://www.w3.org/2000/svg">
<g opacity="0.35">
<path d="M16.9434 0C9.57671 0 3.28671 4.76 0.963379 11.3333H33.0367C30.6567 4.76 24.3667 0 16.9434 0Z" fill="#F9F9F9"/>
<path d="M16.9434 34C24.3667 34 30.6567 29.24 32.98 22.6667H0.963379C3.28671 29.2967 9.57671 34 16.9434 34Z" fill="#ED4C5C"/>
<path d="M0.963333 11.3333C0.34 13.09 0 15.0166 0 17C0 18.9833 0.34 20.91 0.963333 22.6666H33.0367C33.66 20.91 34 18.9833 34 17C34 15.0166 33.66 13.09 33.0367 11.3333H0.963333Z" fill="#428BC1"/>
</g>
<g opacity="0.7">
<mask id="mask0_3742_3771" style="mask-type:alpha" maskUnits="userSpaceOnUse" x="3" y="3" width="28" height="28">
<circle cx="17" cy="17" r="14" fill="#D9D9D9"/>
</mask>
<g mask="url(#mask0_3742_3771)">
<path d="M18.0059 0.0625C10.6392 0.0625 4.34921 4.8225 2.02588 11.3958H34.0992C31.7192 4.8225 25.4292 0.0625 18.0059 0.0625Z" fill="#F9F9F9"/>
<path d="M18.0059 34.0625C25.4292 34.0625 31.7192 29.3025 34.0425 22.7292H2.02588C4.34921 29.3592 10.6392 34.0625 18.0059 34.0625Z" fill="#ED4C5C"/>
<path d="M2.02583 11.3958C1.4025 13.1525 1.0625 15.0791 1.0625 17.0625C1.0625 19.0458 1.4025 20.9725 2.02583 22.7291H34.0992C34.7225 20.9725 35.0625 19.0458 35.0625 17.0625C35.0625 15.0791 34.7225 13.1525 34.0992 11.3958H2.02583Z" fill="#428BC1"/>
</g>
</g>
<mask id="mask1_3742_3771" style="mask-type:alpha" maskUnits="userSpaceOnUse" x="6" y="6" width="22" height="22">
<circle cx="17" cy="17" r="11" fill="#D9D9D9"/>
</mask>
<g mask="url(#mask1_3742_3771)">
<path d="M18.0059 0.0625C10.6392 0.0625 4.34921 4.8225 2.02588 11.3958H34.0992C31.7192 4.8225 25.4292 0.0625 18.0059 0.0625Z" fill="#F9F9F9"/>
<path d="M18.0059 34.0625C25.4292 34.0625 31.7192 29.3025 34.0425 22.7292H2.02588C4.34921 29.3592 10.6392 34.0625 18.0059 34.0625Z" fill="#ED4C5C"/>
<path d="M2.02583 11.3958C1.4025 13.1525 1.0625 15.0791 1.0625 17.0625C1.0625 19.0458 1.4025 20.9725 2.02583 22.7291H34.0992C34.7225 20.9725 35.0625 19.0458 35.0625 17.0625C35.0625 15.0791 34.7225 13.1525 34.0992 11.3958H2.02583Z" fill="#428BC1"/>
</g>
</svg>
