<svg width="36" height="36" viewBox="0 0 36 36" fill="none" xmlns="http://www.w3.org/2000/svg">
<g opacity="0.35" filter="url(#filter0_d_3742_3771)">
<path d="M17.9439 1C10.5772 1 4.2872 5.76 1.96387 12.3333H34.0372C31.6572 5.76 25.3672 1 17.9439 1Z" fill="#F2F2F2"/>
<path d="M17.9439 35C25.3672 35 31.6572 30.24 33.9805 23.6667H1.96387C4.2872 30.2967 10.5772 35 17.9439 35Z" fill="#ED4C5C"/>
<path d="M1.96333 12.3333C1.34 14.09 1 16.0166 1 18C1 19.9833 1.34 21.91 1.96333 23.6666H34.0367C34.66 21.91 35 19.9833 35 18C35 16.0166 34.66 14.09 34.0367 12.3333H1.96333Z" fill="#428BC1"/>
</g>
<g opacity="0.7">
<mask id="mask0_3742_3771" style="mask-type:alpha" maskUnits="userSpaceOnUse" x="4" y="4" width="28" height="28">
<circle cx="18" cy="18" r="14" fill="#D9D9D9"/>
</mask>
<g mask="url(#mask0_3742_3771)">
<path d="M19.0064 1.0625C11.6397 1.0625 5.3497 5.8225 3.02637 12.3958H35.0997C32.7197 5.8225 26.4297 1.0625 19.0064 1.0625Z" fill="#F2F2F2"/>
<path d="M19.0064 35.0625C26.4297 35.0625 32.7197 30.3025 35.043 23.7292H3.02637C5.3497 30.3592 11.6397 35.0625 19.0064 35.0625Z" fill="#ED4C5C"/>
<path d="M3.02583 12.3958C2.4025 14.1525 2.0625 16.0791 2.0625 18.0625C2.0625 20.0458 2.4025 21.9725 3.02583 23.7291H35.0992C35.7225 21.9725 36.0625 20.0458 36.0625 18.0625C36.0625 16.0791 35.7225 14.1525 35.0992 12.3958H3.02583Z" fill="#428BC1"/>
</g>
</g>
<mask id="mask1_3742_3771" style="mask-type:alpha" maskUnits="userSpaceOnUse" x="7" y="7" width="22" height="22">
<circle cx="18" cy="18" r="11" fill="#D9D9D9"/>
</mask>
<g mask="url(#mask1_3742_3771)">
<path d="M19.0064 1.0625C11.6397 1.0625 5.3497 5.8225 3.02637 12.3958H35.0997C32.7197 5.8225 26.4297 1.0625 19.0064 1.0625Z" fill="#F2F2F2"/>
<path d="M19.0064 35.0625C26.4297 35.0625 32.7197 30.3025 35.043 23.7292H3.02637C5.3497 30.3592 11.6397 35.0625 19.0064 35.0625Z" fill="#ED4C5C"/>
<path d="M3.02583 12.3958C2.4025 14.1525 2.0625 16.0791 2.0625 18.0625C2.0625 20.0458 2.4025 21.9725 3.02583 23.7291H35.0992C35.7225 21.9725 36.0625 20.0458 36.0625 18.0625C36.0625 16.0791 35.7225 14.1525 35.0992 12.3958H3.02583Z" fill="#428BC1"/>
</g>
<defs>
<filter id="filter0_d_3742_3771" x="0" y="0" width="36" height="36" filterUnits="userSpaceOnUse" color-interpolation-filters="sRGB">
<feFlood flood-opacity="0" result="BackgroundImageFix"/>
<feColorMatrix in="SourceAlpha" type="matrix" values="0 0 0 0 0 0 0 0 0 0 0 0 0 0 0 0 0 0 127 0" result="hardAlpha"/>
<feOffset/>
<feGaussianBlur stdDeviation="0.5"/>
<feComposite in2="hardAlpha" operator="out"/>
<feColorMatrix type="matrix" values="0 0 0 0 0 0 0 0 0 0 0 0 0 0 0 0 0 0 0.3 0"/>
<feBlend mode="normal" in2="BackgroundImageFix" result="effect1_dropShadow_3742_3771"/>
<feBlend mode="normal" in="SourceGraphic" in2="effect1_dropShadow_3742_3771" result="shape"/>
</filter>
</defs>
</svg>
